<svg id="Layer_1" data-name="Layer 1" xmlns="http://www.w3.org/2000/svg" viewBox="0 0 47.34 54.26"><defs><style>.cls-1{fill:#fbffff;}</style></defs><title>logo_revert</title><path class="cls-1" d="M46.08,4.75A8.73,8.73,0,0,0,43,1.8,12.06,12.06,0,0,0,39,.37,26.08,26.08,0,0,0,34.72,0H22.36V.9h3.17V34.34H18.62v.89H34.93v-.61l-.09-.28H31.55l.06-15.64a5.16,5.16,0,0,0,2.08.9,14.6,14.6,0,0,0,2.09.16,15.45,15.45,0,0,0,4-.56,11.74,11.74,0,0,0,3.7-1.74,9.19,9.19,0,0,0,3.83-7.79A9,9,0,0,0,46.08,4.75Zm-4.91,8.88a8.38,8.38,0,0,1-1.38,2.69,6.05,6.05,0,0,1-5,2.43,5.26,5.26,0,0,1-3.22-1V1l.77-.1a4,4,0,0,1,.5-.06,11.59,11.59,0,0,1,3.56.53A7.12,7.12,0,0,1,39.18,3,7.46,7.46,0,0,1,41,6a13.78,13.78,0,0,1,.6,4.33A11.37,11.37,0,0,1,41.17,13.63Z" transform="translate(0.02 0)"/><path class="cls-1" d="M40.8,52.8,23.8,0H21q-3.51,11.69-7,23.32T7,46.64C6.6,47.92,6.22,49,5.9,49.8a4.85,4.85,0,0,1-1.2,1.88,3.94,3.94,0,0,1-1.84.88A13.89,13.89,0,0,1,0,52.8v1.36H14.14V52.8H12.26a11.62,11.62,0,0,1-2.12-.2,5,5,0,0,1-1.8-.68,1.6,1.6,0,0,1-.76-1.44A10.47,10.47,0,0,1,8,48.4c.27-1,.58-2.13.92-3.36s.71-2.45,1.08-3.68.7-2.24,1-3l.36-1v-.1l.81-2.6h0l6.16-20.2,6.72,21h0l.73,2.35,4.8,15.09H25.2v1.36H44.32V52.9Z" transform="translate(0.02 0)"/></svg>