<svg id="Layer_1" data-name="Layer 1" xmlns="http://www.w3.org/2000/svg" viewBox="0 0 368.04 75.56"><defs><style>.cls-1{fill:#fbfeff;}</style></defs><title>logo_white</title><path class="cls-1" d="M159.45,130.33v6.92h-13.6v-4.83a17.68,17.68,0,0,1-12.61,5.49,13.75,13.75,0,0,1-9.4-3.52,12.11,12.11,0,0,1,.25-18.19,15.13,15.13,0,0,1,10.22-3.64,19.6,19.6,0,0,1,10.77,3.36V112a14.82,14.82,0,0,0-.58-4.67,5.93,5.93,0,0,0-2.68-2.95,10.35,10.35,0,0,0-5.51-1.31q-5.85,0-8.47,4.67l-7.46-2q5-9.26,17.12-9.25a22.32,22.32,0,0,1,7.72,1.2,11.33,11.33,0,0,1,4.85,3.12,10.19,10.19,0,0,1,2.15,4.11,32.08,32.08,0,0,1,.55,7v18.34Zm-14.37-7.82a16.51,16.51,0,0,0-10.2-3.93,8,8,0,0,0-5.41,1.88,6.18,6.18,0,0,0-2.17,4.88,6.33,6.33,0,0,0,1.91,4.67,7.06,7.06,0,0,0,5.18,1.88q5.66,0,10.69-4.75Z" transform="translate(-119.85 -79.47)"/><path class="cls-1" d="M168.34,148.11V104.53h-6.68V97.61h14.46v6.23Q181.93,97,190.21,97A18.31,18.31,0,0,1,204,102.73q5.46,5.73,5.46,14.91,0,9.61-5.93,15.19a19.1,19.1,0,0,1-27.44-.49v15.77h7.7V155H161.09v-6.92ZM176,118a15,15,0,0,0,1.35,6.26,12.14,12.14,0,0,0,11.22,7,12.28,12.28,0,0,0,9.19-3.73q3.63-3.74,3.63-10.24,0-6.34-3.79-9.91a12.27,12.27,0,0,0-8.62-3.56,12.5,12.5,0,0,0-9.07,3.87A13.78,13.78,0,0,0,176,118Z" transform="translate(-119.85 -79.47)"/><path class="cls-1" d="M221.82,130.33V87.21h-7.17V80.29H229.6v21.87q7-5.66,13.31-5.65a11.74,11.74,0,0,1,6.47,1.63,8.29,8.29,0,0,1,3.46,4.32,25.36,25.36,0,0,1,.92,7.85v20h6.76v6.92H246V113a40.35,40.35,0,0,0-.28-6,4.05,4.05,0,0,0-1.58-2.5,4.92,4.92,0,0,0-3.05-1q-4.51,0-11.47,5.12v21.7h6.88v6.92H214.65v-6.92Z" transform="translate(-119.85 -79.47)"/><path class="cls-1" d="M270.84,130.33v-25.8h-8V97.61h14.22v8.93a15.53,15.53,0,0,1,3.64-5.77,11.7,11.7,0,0,1,4.94-3,27.18,27.18,0,0,1,7.1-.73h2.05v7.86h-1.56q-5.94,0-8.86,1.19a8,8,0,0,0-4.35,4.32q-1.41,3.13-1.41,11.24v8.72h8.64v6.92H262.85v-6.92Z" transform="translate(-119.85 -79.47)"/><path class="cls-1" d="M295.82,117.43a20.06,20.06,0,0,1,6.06-15.05,20.47,20.47,0,0,1,14.79-5.87,20.7,20.7,0,0,1,14.7,5.79q6.13,5.79,6.14,15.13t-6.12,15.16a20.64,20.64,0,0,1-14.72,5.81,20.34,20.34,0,0,1-20.85-21Zm8.23,0a13.15,13.15,0,0,0,3.67,9.62,12.54,12.54,0,0,0,17.93,0,14.39,14.39,0,0,0-.06-19.18,12,12,0,0,0-8.92-3.77,11.78,11.78,0,0,0-9.05,3.86A13.45,13.45,0,0,0,304.05,117.41Z" transform="translate(-119.85 -79.47)"/><path class="cls-1" d="M392.92,130.33v6.92H378v-5.81a18.35,18.35,0,0,1-14.17,6.47,19.66,19.66,0,0,1-13.59-5.28q-5.87-5.3-5.86-15t6-15.44A19.35,19.35,0,0,1,364,96.51a18.59,18.59,0,0,1,14,6.39V87.21H370.4V80.29h15.39v50ZM352.7,117.39q0,6.56,3.71,10.08a12.68,12.68,0,0,0,17.73-.19Q378,123.58,378,117t-3.95-10a13.33,13.33,0,0,0-8.87-3.36,11.53,11.53,0,0,0-8.88,4A13.89,13.89,0,0,0,352.7,117.39Z" transform="translate(-119.85 -79.47)"/><path class="cls-1" d="M402,130.33v-25.8h-6.14V97.61h13.92v32.72h6.14v6.92H395.87v-6.92Zm-1.1-46.19a4.58,4.58,0,0,1,1.33-3.28,4.44,4.44,0,0,1,3.37-1.39,4.6,4.6,0,0,1,3.32,1.35,4.44,4.44,0,0,1,1.39,3.32,4.52,4.52,0,0,1-1.39,3.34,4.58,4.58,0,0,1-3.32,1.37,4.71,4.71,0,0,1-4.7-4.71Z" transform="translate(-119.85 -79.47)"/><path class="cls-1" d="M420.15,104.53V97.61h5.16v-6.1l7.78-7.13V97.61h7.33v6.92h-7.33v19.25q0,4.64.52,5.71c.34.73,1.19,1.09,2.56,1.09a11.47,11.47,0,0,0,4.25-.82v7.08a17.69,17.69,0,0,1-6,1.07,9.73,9.73,0,0,1-5.77-1.58,6.72,6.72,0,0,1-2.78-4,39.11,39.11,0,0,1-.58-8.19V104.53Z" transform="translate(-119.85 -79.47)"/><path class="cls-1" d="M487.89,119.4H454.55a14.45,14.45,0,0,0,4.34,8.89,12.92,12.92,0,0,0,9.22,3.39,15.1,15.1,0,0,0,12.9-6.55l6.88,3a20.76,20.76,0,0,1-8.72,7.72,26.12,26.12,0,0,1-11.23,2.52,22.73,22.73,0,0,1-15.54-5.67q-6.45-5.67-6.45-15.3a19.72,19.72,0,0,1,6.29-15,20.48,20.48,0,0,1,14.43-5.89,21.27,21.27,0,0,1,14.48,5.75Q487.65,108,487.89,119.4Zm-8-5.65a14.17,14.17,0,0,0-4.34-7.56,12,12,0,0,0-8.64-3.38,11.41,11.41,0,0,0-8,3,13.05,13.05,0,0,0-4.05,7.89Z" transform="translate(-119.85 -79.47)"/></svg>