<svg id="Layer_1" data-name="Layer 1" xmlns="http://www.w3.org/2000/svg" viewBox="0 0 47.41 54.3"><defs><style>.cls-1{fill:#00000f;}</style></defs><title>logo</title><path class="cls-1" d="M46.1,4.7A8.63,8.63,0,0,0,43,1.8,11.73,11.73,0,0,0,38.9.4,19.31,19.31,0,0,0,34.7,0H22.4V.9h3.2V34.3H18.7v.9H35v-.6l-.1-.3H31.6l.1-15.6a4,4,0,0,0,2.1.9,14.92,14.92,0,0,0,2.1.2,13.36,13.36,0,0,0,4-.6,12.45,12.45,0,0,0,3.7-1.7,9.18,9.18,0,0,0,3.8-7.8A9.58,9.58,0,0,0,46.1,4.7Zm-4.9,8.9a8.67,8.67,0,0,1-1.4,2.7,5.81,5.81,0,0,1-5,2.4,5.09,5.09,0,0,1-3.2-1V1l.8-.1c.2,0,.3-.1.5-.1a14.87,14.87,0,0,1,3.6.5A6.83,6.83,0,0,1,39.3,3a8.7,8.7,0,0,1,1.6,3,15.93,15.93,0,0,1,.6,4.3A9.26,9.26,0,0,1,41.2,13.6Z" transform="translate(0 0)"/><path class="cls-1" d="M40.8,52.8,23.8,0H21c-2.3,7.8-4.7,15.6-7,23.3S9.4,38.8,7,46.6c-.4,1.3-.8,2.3-1.1,3.2a4.74,4.74,0,0,1-1.2,1.9,3.43,3.43,0,0,1-1.8.9,9.25,9.25,0,0,1-2.9.2v1.4H14.2V52.8H12.3a14.92,14.92,0,0,1-2.1-.2,4.49,4.49,0,0,1-1.8-.7,1.72,1.72,0,0,1-.8-1.4A15.52,15.52,0,0,1,8,48.4c.3-1,.6-2.1.9-3.4s.7-2.4,1.1-3.7.7-2.2,1-3l.4-1v-.1l.8-2.6h0l6.2-20.2,6.7,21h0l.7,2.4,4.8,15.1H25.2v1.4H44.3V52.9Z" transform="translate(0 0)"/></svg>